<?xml version="1.0" encoding="UTF-8" standalone="no"?>
<svg
   xmlns:dc="http://purl.org/dc/elements/1.1/"
   xmlns:cc="http://creativecommons.org/ns#"
   xmlns:rdf="http://www.w3.org/1999/02/22-rdf-syntax-ns#"
   xmlns:svg="http://www.w3.org/2000/svg"
   xmlns="http://www.w3.org/2000/svg"
   xmlns:sodipodi="http://sodipodi.sourceforge.net/DTD/sodipodi-0.dtd"
   xmlns:inkscape="http://www.inkscape.org/namespaces/inkscape"
   version="1.1"
   id="Layer_1"
   x="0px"
   y="0px"
   width="750"
   height="204"
   viewBox="0 0 750 204"
   enable-background="new 0 0 612 792"
   xml:space="preserve">
<path
   d="M 372.00553,109.24954"
   id="path11"
   inkscape:connector-curvature="0"
   style="fill:#df1547" /><path
   d="M 0.75009911,7.2355388 H 52.81793 L 52.519076,70.806267 c 0,0 46.615236,-63.5707282 45.403988,-63.5707282 -1.211248,0 62.056666,0 62.056666,0 L 106.04951,81.703541 161.6541,166.46517 H 95.66088 L 52.424076,90.785922 52.067827,166.46517 H -3.8196e-6 L 0.75009911,7.2355388 z"
   id="path15"
   inkscape:connector-curvature="0"
   style="fill:#df1547" /><path
   style="fill:#df1547"
   inkscape:connector-curvature="0"
   id="path17"
   d="m 116.56085,50.826613 h 56.30522 l 24.56339,39.201289 24.85632,-39.201289 h 56.91084 c 0,0 -82.46184,122.599277 -82.45591,121.388027 0.006,-1.21125 -80.17986,-121.388027 -80.17986,-121.388027 z" /><polygon
   style="fill:#df1547"
   id="polygon19"
   points="248.979,347.391 248.704,405.818 271.494,405.818 271.769,347.391 "
   transform="matrix(1.9791634,0,0,1.9791634,-233.55316,-636.71694)" /><path
   d="m 281.55776,47.309639 c 13.06248,0 23.70246,-10.590503 23.76382,-23.652981 0.0614,-13.062479 -10.4777,-23.65298226 -23.54215,-23.65298226 -13.06446,0 -23.70246,10.59050326 -23.76382,23.65298226 -0.0614,13.062478 10.47967,23.652981 23.54215,23.652981 z"
   id="path23"
   inkscape:connector-curvature="0"
   style="fill:#df1547" /><path
   d="M 281.66859,23.656658"
   id="path25"
   inkscape:connector-curvature="0"
   style="fill:#df1547" /><polygon
   style="fill:#df1547"
   id="polygon27"
   points="392.933,325.366 416.182,325.366 415.803,405.818 392.555,405.818 "
   transform="matrix(1.9791634,0,0,1.9791634,-233.55316,-636.71694)" /><polygon
   style="fill:#df1547"
   id="polygon29"
   points="496.954,346.817 456.399,424.784 430.015,424.784 441.286,402.376 411.034,346.702 439.712,346.702 454.484,376.757 470.149,346.779 "
   transform="matrix(1.9791634,0,0,1.9791634,-233.55316,-636.71694)" /><polygon
   style="fill:#df1547"
   id="polygon31"
   points="348.352,405.818 324.797,405.818 325.173,325.863 348.728,325.863 348.534,366.968 363.77,347.084 392.066,347.084 372.374,371.404 395.767,405.818 365.788,405.818 348.49,376.451 "
   transform="matrix(1.9791634,0,0,1.9791634,-233.55316,-636.71694)" /><path
   style="fill:#df1547"
   inkscape:connector-curvature="0"
   id="path33"
   d="m 415.98056,74.297511 m -1.04896,68.467179 c -11.17435,16.90206 -29.82995,27.19173 -51.59283,27.19173 -33.56463,0 -61.33625,-27.90027 -61.17594,-61.67667 0.16427,-34.823383 28.19318,-62.096255 63.01656,-62.096255 21.5907,0 40.11567,11.289148 50.79919,28.114016 l -37.22806,24.69996 c -2.82427,-4.350201 -8.7202,-7.384259 -14.4479,-7.384259 -4.12853,0 -8.67269,2.115726 -11.50685,5.137908 -3.13698,3.12312 -4.66687,7.1527 -4.68864,11.58602 -0.0416,8.96561 6.87363,16.52206 16.03914,16.52206 5.92759,0 11.27925,-2.44427 14.16487,-6.83999 l 36.62046,24.74548 z" />

</svg>