<svg width="20" height="20" viewBox="0 0 20 20" fill="none" xmlns="http://www.w3.org/2000/svg">
<g clip-path="url(#clip0_1_2)">
<path fill-rule="evenodd" clip-rule="evenodd" d="M17.5565 0C18.9051 0 20 1.09492 20 2.44352V17.5565C20 18.9051 18.9051 20 17.5565 20H2.44352C1.09492 20 0 18.9051 0 17.5565V2.44352C0 1.09492 1.09488 0 2.44352 0H17.5565V0ZM7.63746 16.5838C12.9476 16.5838 15.8511 12.1836 15.8511 8.37016C15.8511 8.24445 15.8511 8.11871 15.8451 7.99898C16.4078 7.59191 16.8987 7.08305 17.2879 6.50234C16.773 6.72984 16.2163 6.88551 15.6296 6.95734C16.2282 6.59813 16.6832 6.03539 16.8987 5.35891C16.342 5.68816 15.7254 5.92766 15.0668 6.05934C14.54 5.4966 13.7917 5.14938 12.9596 5.14938C11.3671 5.14938 10.074 6.4425 10.074 8.03492C10.074 8.26242 10.098 8.48391 10.1518 8.69344C7.75121 8.57371 5.62598 7.4243 4.20117 5.67621C3.9557 6.10125 3.81203 6.59813 3.81203 7.12496C3.81203 8.12473 4.3209 9.01074 5.09914 9.52559C4.62621 9.51359 4.1832 9.38191 3.79406 9.16637V9.2023C3.79406 10.6032 4.78785 11.7646 6.1109 12.0339C5.87145 12.0998 5.61402 12.1357 5.35059 12.1357C5.165 12.1357 4.98543 12.1178 4.80582 12.0818C5.17102 13.2313 6.2366 14.0634 7.49977 14.0873C6.51199 14.8596 5.2668 15.3206 3.91383 15.3206C3.68035 15.3206 3.45285 15.3086 3.22535 15.2787C4.48852 16.1048 6.0091 16.5838 7.63746 16.5838V16.5838Z" fill="black"/>
</g>
<defs>
<clipPath id="clip0_1_2">
<rect width="20" height="20" fill="white"/>
</clipPath>
</defs>
</svg>
